<svg width="180" height="54" viewBox="0 0 180 54" fill="none" xmlns="http://www.w3.org/2000/svg">
<path d="M60 0.75H16.3636C13.3511 0.75 10.9091 3.26836 10.9091 6.375V36.375C10.9091 39.4816 13.3511 42 16.3636 42H60C63.0125 42 65.4545 39.4816 65.4545 36.375V6.375C65.4545 3.26836 63.0114 0.75 60 0.75ZM25.3523 8.25C27.3614 8.25 28.9886 9.9293 28.9886 12C28.9886 14.0707 27.4659 15.75 25.3523 15.75C23.3443 15.75 21.7159 14.0707 21.7159 12C21.7159 9.9293 23.4432 8.25 25.3523 8.25ZM56.1477 33.5156C55.8295 34.125 55.2159 34.5 54.5455 34.5H21.8182C21.1337 34.5 20.508 34.104 20.1977 33.4746C19.8875 32.8457 19.946 32.0906 20.3491 31.5199L28.3036 20.2699C28.6477 19.7813 29.1932 19.5 29.7727 19.5C30.3535 19.5 30.8995 19.7861 31.242 20.2704L33.7818 23.8634L40.9114 12.8348C41.1477 12.3164 41.7159 12 42.4205 12C43.0282 12 43.5955 12.3131 43.933 12.835L56.058 31.585C56.4318 32.1562 56.4659 32.8945 56.1477 33.5156ZM51.8182 47.625H13.6364C9.125 47.625 5.45455 43.8398 5.45455 39.1875V11.0625C5.45455 9.51563 4.23295 8.25 2.72727 8.25C1.22159 8.25 0 9.51563 0 11.0625V39.1875C0 46.9453 6.11705 53.25 13.6364 53.25H51.8182C53.3239 53.25 54.5455 51.9902 54.5455 50.4375C54.5455 48.8848 53.3295 47.625 51.8182 47.625Z" fill="#5546FC"/>
<path d="M84.555 28.7773H80.1605V26.2461H84.555C85.2738 26.2461 85.8558 26.1289 86.3011 25.8945C86.7543 25.6523 87.0863 25.3242 87.2972 24.9102C87.5082 24.4883 87.6136 24.0078 87.6136 23.4688C87.6136 22.9453 87.5082 22.457 87.2972 22.0039C87.0863 21.5508 86.7543 21.1836 86.3011 20.9023C85.8558 20.6211 85.2738 20.4805 84.555 20.4805H81.2152V35H77.9925V17.9375H84.555C85.8832 17.9375 87.016 18.1758 87.9535 18.6523C88.8988 19.1211 89.6175 19.7734 90.1097 20.6094C90.6097 21.4375 90.8597 22.3828 90.8597 23.4453C90.8597 24.5469 90.6097 25.4961 90.1097 26.293C89.6175 27.0898 88.8988 27.7031 87.9535 28.1328C87.016 28.5625 85.8832 28.7773 84.555 28.7773ZM96.4379 22.3203V35H93.3324V22.3203H96.4379ZM93.1214 19.0039C93.1214 18.543 93.2777 18.1602 93.5902 17.8555C93.9105 17.5508 94.3402 17.3984 94.8793 17.3984C95.4183 17.3984 95.8441 17.5508 96.1566 17.8555C96.4769 18.1602 96.6371 18.543 96.6371 19.0039C96.6371 19.457 96.4769 19.8359 96.1566 20.1406C95.8441 20.4453 95.4183 20.5977 94.8793 20.5977C94.3402 20.5977 93.9105 20.4453 93.5902 20.1406C93.2777 19.8359 93.1214 19.457 93.1214 19.0039ZM101.817 22.3203L104.078 26.3516L106.375 22.3203H109.739L106.012 28.5312L109.891 35H106.528L104.102 30.7695L101.664 35H98.3011L102.168 28.5312L98.4652 22.3203H101.817ZM113.172 17.9375H115.961L120.625 30.7812L125.278 17.9375H128.078L121.739 35H119.5L113.172 17.9375ZM111.766 17.9375H114.496L114.989 29.7383V35H111.766V17.9375ZM126.743 17.9375H129.485V35H126.262V29.7383L126.743 17.9375ZM139.516 32.3047V26.457C139.516 26.0273 139.442 25.6562 139.293 25.3438C139.145 25.0312 138.918 24.7891 138.614 24.6172C138.309 24.4453 137.922 24.3594 137.453 24.3594C137.039 24.3594 136.676 24.4297 136.364 24.5703C136.059 24.7109 135.825 24.9102 135.661 25.168C135.496 25.418 135.414 25.707 135.414 26.0352H132.309C132.309 25.5117 132.434 25.0156 132.684 24.5469C132.934 24.0703 133.289 23.6484 133.75 23.2812C134.219 22.9062 134.778 22.6133 135.426 22.4023C136.082 22.1914 136.817 22.0859 137.629 22.0859C138.59 22.0859 139.446 22.25 140.196 22.5781C140.953 22.8984 141.547 23.3828 141.977 24.0312C142.414 24.6797 142.633 25.4961 142.633 26.4805V32.0117C142.633 32.6445 142.672 33.1875 142.75 33.6406C142.836 34.0859 142.961 34.4727 143.125 34.8008V35H139.973C139.825 34.6797 139.711 34.2734 139.633 33.7812C139.555 33.2812 139.516 32.7891 139.516 32.3047ZM139.95 27.2773L139.973 29.1172H138.016C137.532 29.1172 137.106 29.168 136.739 29.2695C136.371 29.3633 136.071 29.5039 135.836 29.6914C135.602 29.8711 135.426 30.0898 135.309 30.3477C135.192 30.5977 135.133 30.8828 135.133 31.2031C135.133 31.5156 135.203 31.7969 135.344 32.0469C135.493 32.2969 135.703 32.4961 135.977 32.6445C136.258 32.7852 136.586 32.8555 136.961 32.8555C137.508 32.8555 137.985 32.7461 138.391 32.5273C138.797 32.3008 139.114 32.0273 139.34 31.707C139.567 31.3867 139.688 31.082 139.703 30.793L140.594 32.1289C140.485 32.4492 140.321 32.7891 140.102 33.1484C139.883 33.5078 139.602 33.8438 139.258 34.1562C138.914 34.4688 138.5 34.7266 138.016 34.9297C137.532 35.1328 136.969 35.2344 136.328 35.2344C135.508 35.2344 134.774 35.0703 134.125 34.7422C133.477 34.4141 132.965 33.9648 132.59 33.3945C132.215 32.8242 132.028 32.1758 132.028 31.4492C132.028 30.7773 132.153 30.1836 132.403 29.668C132.653 29.1523 133.024 28.7188 133.516 28.3672C134.008 28.0078 134.618 27.7383 135.344 27.5586C136.078 27.3711 136.918 27.2773 137.864 27.2773H139.95ZM153.485 22.3203H156.297V34.6133C156.297 35.7617 156.047 36.7344 155.547 37.5312C155.055 38.3359 154.364 38.9453 153.473 39.3594C152.582 39.7812 151.547 39.9922 150.368 39.9922C149.86 39.9922 149.309 39.9219 148.715 39.7812C148.129 39.6406 147.563 39.418 147.016 39.1133C146.477 38.8164 146.028 38.4297 145.668 37.9531L147.063 36.125C147.485 36.6172 147.961 36.9883 148.493 37.2383C149.024 37.4961 149.598 37.625 150.215 37.625C150.84 37.625 151.371 37.5078 151.809 37.2734C152.254 37.0469 152.594 36.7109 152.828 36.2656C153.071 35.8281 153.192 35.2891 153.192 34.6484V25.2148L153.485 22.3203ZM144.918 28.8125V28.5664C144.918 27.5977 145.036 26.7188 145.27 25.9297C145.504 25.1328 145.84 24.4492 146.278 23.8789C146.723 23.3086 147.258 22.8672 147.883 22.5547C148.516 22.2422 149.227 22.0859 150.016 22.0859C150.852 22.0859 151.555 22.2383 152.125 22.543C152.703 22.8477 153.18 23.2812 153.555 23.8438C153.938 24.4062 154.235 25.0742 154.446 25.8477C154.664 26.6133 154.832 27.457 154.95 28.3789V29.0469C154.84 29.9453 154.664 30.7695 154.422 31.5195C154.188 32.2695 153.875 32.9258 153.485 33.4883C153.094 34.043 152.61 34.4727 152.032 34.7773C151.453 35.082 150.774 35.2344 149.993 35.2344C149.211 35.2344 148.508 35.0742 147.883 34.7539C147.258 34.4336 146.723 33.9844 146.278 33.4062C145.84 32.8281 145.504 32.1484 145.27 31.3672C145.036 30.5859 144.918 29.7344 144.918 28.8125ZM148.012 28.5664V28.8125C148.012 29.3594 148.067 29.8711 148.176 30.3477C148.286 30.8242 148.453 31.2461 148.68 31.6133C148.907 31.9727 149.192 32.2539 149.536 32.457C149.879 32.6602 150.289 32.7617 150.766 32.7617C151.407 32.7617 151.93 32.6289 152.336 32.3633C152.75 32.0898 153.063 31.7188 153.274 31.25C153.493 30.7734 153.633 30.2383 153.696 29.6445V27.8047C153.657 27.3359 153.571 26.9023 153.438 26.5039C153.313 26.1055 153.137 25.7617 152.911 25.4727C152.684 25.1836 152.395 24.957 152.043 24.793C151.692 24.6289 151.274 24.5469 150.789 24.5469C150.321 24.5469 149.911 24.6523 149.559 24.8633C149.207 25.0664 148.918 25.3516 148.692 25.7188C148.465 26.0859 148.293 26.5117 148.176 26.9961C148.067 27.4805 148.012 28.0039 148.012 28.5664ZM164.782 35.2344C163.821 35.2344 162.957 35.0781 162.192 34.7656C161.426 34.4531 160.774 34.0195 160.235 33.4648C159.703 32.9023 159.293 32.25 159.004 31.5078C158.723 30.7578 158.582 29.9531 158.582 29.0938V28.625C158.582 27.6484 158.723 26.7617 159.004 25.9648C159.286 25.1602 159.684 24.4688 160.2 23.8906C160.715 23.3125 161.332 22.8672 162.051 22.5547C162.77 22.2422 163.563 22.0859 164.43 22.0859C165.328 22.0859 166.121 22.2383 166.809 22.543C167.496 22.8398 168.071 23.2617 168.532 23.8086C168.993 24.3555 169.34 25.0117 169.575 25.7773C169.809 26.5352 169.926 27.375 169.926 28.2969V29.5977H159.989V27.4648H166.879V27.2305C166.864 26.7383 166.77 26.2891 166.598 25.8828C166.426 25.4688 166.161 25.1406 165.801 24.8984C165.442 24.6484 164.977 24.5234 164.407 24.5234C163.946 24.5234 163.543 24.625 163.2 24.8281C162.864 25.0234 162.582 25.3047 162.356 25.6719C162.137 26.0312 161.973 26.4609 161.864 26.9609C161.754 27.4609 161.7 28.0156 161.7 28.625V29.0938C161.7 29.625 161.77 30.1172 161.911 30.5703C162.059 31.0234 162.274 31.418 162.555 31.7539C162.844 32.082 163.188 32.3398 163.586 32.5273C163.993 32.707 164.453 32.7969 164.969 32.7969C165.618 32.7969 166.203 32.6719 166.727 32.4219C167.258 32.1641 167.719 31.7852 168.11 31.2852L169.668 32.9023C169.403 33.293 169.043 33.668 168.59 34.0273C168.145 34.3867 167.606 34.6797 166.973 34.9062C166.34 35.125 165.61 35.2344 164.782 35.2344Z" fill="black"/>
</svg>
